HIERARCHY
ROOT Hips
{
	OFFSET -3.958830 18.904000 13.208200
	CHANNELS 6 Xposition Yposition Zposition Zrotation Yrotation Xrotation 
	JOINT LHipJoint
	{
		OFFSET 0.000000 0.000000 0.000000
		CHANNELS 3 Zrotation Yrotation Xrotation
		JOINT LeftUpLeg
		{
			OFFSET 1.800000 -1.400000 0.085000
			CHANNELS 3 Zrotation Yrotation Xrotation
			JOINT LeftLeg
			{
				OFFSET 2.215000 -6.000000 0.000000
				CHANNELS 3 Zrotation Yrotation Xrotation
				JOINT LeftFoot
				{
					OFFSET 2.500000 -6.900000 0.000000
					CHANNELS 3 Zrotation Yrotation Xrotation
					JOINT LeftToeBase
					{
						OFFSET 0.200000 -0.500000 1.950000
						CHANNELS 3 Zrotation Yrotation Xrotation
						End Site
						{
							OFFSET 0.000000 0.000000 0.000000
						}
					}
				}
			}
		}
	}
	JOINT RHipJoint
	{
		OFFSET 0.000000 0.000000 0.000000
		CHANNELS 3 Zrotation Yrotation Xrotation
		JOINT RightUpLeg
		{
			OFFSET -1.800000 -1.400000 0.085000
			CHANNELS 3 Zrotation Yrotation Xrotation
			JOINT RightLeg
			{
				OFFSET -2.215000 -6.000000 0.000000
				CHANNELS 3 Zrotation Yrotation Xrotation
				JOINT RightFoot
				{
					OFFSET -2.500000 -6.900000 0.000000
					CHANNELS 3 Zrotation Yrotation Xrotation
					JOINT RightToeBase
					{
						OFFSET -0.200000 -0.500000 1.950000
						CHANNELS 3 Zrotation Yrotation Xrotation
						End Site
						{
							OFFSET 0.000000 0.000000 0.000000
						}
					}
				}
			}
		}
	}
	JOINT LowerBack
	{
		OFFSET 0.000000 0.000000 0.000000
		CHANNELS 3 Zrotation Yrotation Xrotation
		JOINT Spine
		{
			OFFSET -0.087000 1.940000 -0.288900
			CHANNELS 3 Zrotation Yrotation Xrotation
			JOINT Spine1
			{
				OFFSET 0.000000 1.950000 0.060000
				CHANNELS 3 Zrotation Yrotation Xrotation
				JOINT Neck
				{
					OFFSET 0.000000 0.000000 0.000000
					CHANNELS 3 Zrotation Yrotation Xrotation
					JOINT Neck1
					{
						OFFSET 0.000000 1.600000 0.340000
						CHANNELS 3 Zrotation Yrotation Xrotation
						JOINT Head
						{
							OFFSET 0.000000 1.667000 -0.240000
							CHANNELS 3 Zrotation Yrotation Xrotation
							End Site
							{
								OFFSET 0.000000 0.000000 0.000000
							}
						}
					}
				}
				JOINT LeftShoulder
				{
					OFFSET 0.000000 0.000000 0.000000
					CHANNELS 3 Zrotation Yrotation Xrotation
					JOINT LeftArm
					{
						OFFSET 2.700000 1.550000 -0.730000
						CHANNELS 3 Zrotation Yrotation Xrotation
						JOINT LeftForeArm
						{
							OFFSET 5.450000 0.000000 0.000000
							CHANNELS 3 Zrotation Yrotation Xrotation
							JOINT LeftHand
							{
								OFFSET 3.450000 0.000000 0.000000
								CHANNELS 3 Zrotation Yrotation Xrotation
								JOINT LeftHandIndex1
								{
									OFFSET 0.750000 0.000000 0.000000
									CHANNELS 3 Zrotation Yrotation Xrotation
									End Site
									{
										OFFSET 0.000000 0.000000 0.000000
									}
								}
							}
						}
					}
				}
				JOINT RightShoulder
				{
					OFFSET 0.000000 0.000000 0.000000
					CHANNELS 3 Zrotation Yrotation Xrotation
					JOINT RightArm
					{
						OFFSET -2.700000 1.550000 -0.730000
						CHANNELS 3 Zrotation Yrotation Xrotation
						JOINT RightForeArm
						{
							OFFSET -5.450000 0.000000 0.000000
							CHANNELS 3 Zrotation Yrotation Xrotation
							JOINT RightHand
							{
								OFFSET -3.450000 0.000000 0.000000
								CHANNELS 3 Zrotation Yrotation Xrotation
								JOINT RightHandIndex1
								{
									OFFSET -0.750000 0.000000 0.000000
									CHANNELS 3 Zrotation Yrotation Xrotation
									End Site
									{
										OFFSET 0.000000 0.000000 0.000000
									}
								}
							}
						}
					}
				}
			}
		}
	}
}
MOTION
Frames: 9
Frame Time: 0.016667
-0.022280 17.254150 -3.742830 0.925447 20.666015 -7.148933 -14.231452 11.171344 2.647741 -1.554848 -0.876603 -6.749915 -11.475401 6.745728 13.572514 -0.446740 3.940718 3.092500 0.672320 0.679390 0.323520 19.190347 -12.251297 3.429960 -13.565045 7.227250 -13.057166 22.984530 -13.900223 34.346863 -1.299132 -7.426599 1.514538 0.388400 -0.067590 0.125290 -6.872644 4.594100 -8.334670 28.969229 -3.927505 27.532882 -21.503373 1.391052 25.338604 8.182718 -5.382716 -11.292141 -8.202521 1.832249 51.406563 8.820940 -7.572980 -31.484440 -20.270344 -27.688243 11.301834 -19.971529 -2.678875 -9.310745 -10.378825 -46.810304 0.713163 -3.015310 3.413877 0.620850 -0.337610 0.327370 0.096270 7.360337 35.405434 3.749516 29.632684 53.420094 -2.906036 -21.970941 61.091048 -13.479991 1.665176 -0.502113 0.029180 0.433040 0.034410 -0.031880 
-0.021280 17.250500 -3.740940 0.945875 20.720445 -7.124560 -14.228708 11.160265 2.645861 -1.522995 -0.868722 -6.732799 -11.580894 6.772478 13.549215 -0.442871 3.952619 3.088680 0.671150 0.677390 0.321270 19.194490 -12.251157 3.433016 -13.612499 7.257271 -13.109001 23.037843 -13.937701 34.406025 -1.301082 -7.442746 1.508423 0.387360 -0.065860 0.126780 -6.884297 4.615356 -8.339087 29.011529 -3.942861 27.479707 -21.590531 1.370253 25.352201 8.199569 -5.408678 -11.282536 -8.234147 1.834901 51.390772 8.839200 -7.622860 -31.422840 -20.250105 -27.637165 11.315852 -19.964021 -2.571912 -9.311582 -10.390539 -46.853876 0.715749 -3.015297 3.419348 0.618990 -0.336610 0.326010 0.097110 7.321162 35.361564 3.730324 29.709345 53.516405 -2.789309 -22.222746 61.070315 -13.605999 1.666021 -0.494447 0.029850 0.431540 0.035120 -0.030470 
-0.019780 17.244600 -3.737550 0.998904 20.827141 -7.092080 -14.224654 11.142374 2.643688 -1.472049 -0.854123 -6.698608 -11.779207 6.827300 13.522915 -0.434628 3.975823 3.080937 0.668360 0.673870 0.316880 19.200666 -12.250020 3.437830 -13.708443 7.305911 -13.182206 23.135275 -14.003713 34.501768 -1.304423 -7.470867 1.497710 0.385200 -0.063320 0.128820 -6.902595 4.647826 -8.348179 29.064332 -3.974818 27.418878 -21.749588 1.336098 25.389785 8.234153 -5.444859 -11.289207 -8.276872 1.845040 51.393192 8.887230 -7.701410 -31.311550 -20.233156 -27.597440 11.366573 -19.944940 -2.344183 -9.344429 -10.347902 -46.952979 0.689063 -3.013388 3.429630 0.615830 -0.335220 0.323950 0.097930 7.261048 35.336148 3.711729 29.783596 53.636837 -2.676417 -22.738777 61.087856 -13.896573 1.668897 -0.479360 0.031120 0.428700 0.036340 -0.027870 
-0.017890 17.237900 -3.733150 1.062256 20.953558 -7.065954 -14.220936 11.125716 2.642347 -1.407135 -0.832086 -6.646153 -12.010941 6.892817 13.487366 -0.426018 4.005447 3.071470 0.662970 0.667460 0.309870 19.206243 -12.247609 3.442722 -13.809135 7.367299 -13.258468 23.224766 -14.077588 34.634865 -1.307664 -7.503678 1.486523 0.381710 -0.058990 0.130600 -6.920469 4.676911 -8.359343 29.112613 -4.013793 27.376865 -21.916771 1.297027 25.434324 8.269893 -5.475906 -11.321558 -8.314898 1.854476 51.432346 8.950130 -7.790570 -31.174540 -20.267011 -27.582934 11.440435 -19.930846 -2.040080 -9.409158 -10.222387 -47.095559 0.620611 -3.011148 3.440248 0.613340 -0.332790 0.320750 0.098390 7.249119 35.343241 3.720568 29.838658 53.750689 -2.598655 -23.270171 61.081168 -14.189567 1.671766 -0.462156 0.030940 0.426670 0.039440 -0.025340 
-0.016330 17.230570 -3.727920 1.152399 21.058834 -7.031133 -14.218969 11.112477 2.644108 -1.349560 -0.804641 -6.577217 -12.266901 6.962616 13.424855 -0.418473 4.038725 3.061473 0.656490 0.658760 0.303250 19.209705 -12.241561 3.447328 -13.915313 7.446134 -13.351861 23.287647 -14.151341 34.819731 -1.310617 -7.538072 1.475587 0.377430 -0.053640 0.130710 -6.931673 4.693866 -8.370761 29.102069 -4.030227 27.380695 -22.027373 1.272460 25.457733 8.283051 -5.516237 -11.349304 -8.376352 1.873981 51.455341 9.044160 -7.868980 -31.076780 -20.329331 -27.554100 11.500589 -19.965653 -1.748659 -9.493066 -10.038472 -47.283372 0.522607 -3.009638 3.446907 0.612730 -0.330800 0.316600 0.098280 7.300625 35.362383 3.741357 29.885779 53.838039 -2.545453 -23.685404 61.113174 -14.424295 1.673897 -0.445565 0.028390 0.427070 0.043710 -0.024010 
-0.015030 17.222940 -3.722050 1.226722 21.174824 -6.980326 -14.217758 11.101996 2.646491 -1.285300 -0.779803 -6.524753 -12.505546 7.021799 13.344000 -0.413655 4.068920 3.052180 0.649910 0.649330 0.295570 19.212220 -12.235734 3.450737 -13.976212 7.525747 -13.458915 23.301265 -14.209425 35.023466 -1.311691 -7.568512 1.466576 0.373500 -0.047790 0.130760 -6.941104 4.706281 -8.380261 29.096026 -4.040888 27.359444 -22.111752 1.254761 25.473927 8.295640 -5.565830 -11.376340 -8.455351 1.898496 51.460490 9.136380 -7.953700 -30.949460 -20.429333 -27.513687 11.544332 -20.044540 -1.509034 -9.575513 -9.712362 -47.456825 0.368786 -3.010150 3.452495 0.612040 -0.328000 0.310770 0.097940 7.387103 35.387532 3.775121 29.917384 53.907246 -2.500320 -23.951528 61.102954 -14.557937 1.674224 -0.434550 0.025250 0.427130 0.049240 -0.023480 
-0.014150 17.215600 -3.715470 1.306778 21.282537 -6.917352 -14.218051 11.096392 2.650953 -1.245272 -0.756789 -6.475869 -12.702181 7.066662 13.257646 -0.406426 4.090335 3.045263 0.645850 0.643530 0.291150 19.212478 -12.228141 3.455015 -14.024764 7.610919 -13.585329 23.290777 -14.261223 35.254740 -1.313823 -7.597401 1.456456 0.370050 -0.044990 0.132120 -6.945278 4.707452 -8.390726 29.050386 -4.029162 27.346049 -22.148495 1.249155 25.473935 8.309537 -5.599027 -11.412600 -8.508553 1.907563 51.484493 9.180190 -8.022950 -30.826070 -20.547915 -27.478453 11.580594 -20.158283 -1.340617 -9.642918 -9.287122 -47.534852 0.181484 -3.010218 3.458405 0.609650 -0.326280 0.307420 0.097260 7.483702 35.414996 3.814689 29.953868 53.999869 -2.425380 -24.138945 60.989646 -14.613585 1.677978 -0.427631 0.025580 0.424470 0.052010 -0.022250 
-0.013680 17.208560 -3.708660 1.388023 21.376120 -6.847181 -14.220039 11.096585 2.657004 -1.237667 -0.741053 -6.444614 -12.839766 7.099100 13.198952 -0.398841 4.104951 3.040320 0.642610 0.638040 0.288720 19.210281 -12.219562 3.459016 -14.058617 7.692869 -13.718534 23.247785 -14.300326 35.494485 -1.315836 -7.621602 1.446934 0.366460 -0.044770 0.134020 -6.943251 4.696669 -8.399971 28.979344 -3.996201 27.346884 -22.150509 1.270342 25.446596 8.312593 -5.592636 -11.472205 -8.511969 1.886736 51.561769 9.202940 -8.082880 -30.676330 -20.679695 -27.473918 11.611312 -20.274715 -1.238563 -9.690368 -8.856990 -47.504691 0.001642 -3.009182 3.463630 0.607620 -0.325770 0.305940 0.096720 7.594982 35.450072 3.885444 29.977132 54.039240 -2.405745 -24.228083 60.914013 -14.631128 1.681449 -0.426322 0.026780 0.419910 0.052940 -0.021590 
-0.013130 17.202870 -3.701900 1.453362 21.452916 -6.798259 -14.222575 11.100422 2.662941 -1.239706 -0.723838 -6.393553 -12.926912 7.116894 13.132704 -0.391984 4.111698 3.037008 0.638500 0.632610 0.287420 19.207255 -12.211693 3.461983 -14.063412 7.770714 -13.831403 23.177854 -14.330927 35.742908 -1.317886 -7.641478 1.438372 0.361480 -0.046410 0.134240 -6.938721 4.680882 -8.408100 28.921643 -3.970586 27.373086 -22.159030 1.298992 25.408963 8.309226 -5.550588 -11.556033 -8.472799 1.844935 51.724460 9.262190 -8.130350 -30.579890 -20.800657 -27.512109 11.651649 -20.388932 -1.163525 -9.733531 -8.385984 -47.391162 -0.188248 -3.006566 3.465927 0.606840 -0.327400 0.305640 0.093950 7.696036 35.490850 3.972127 29.991561 54.046601 -2.439005 -24.165621 60.842197 -14.572070 1.685692 -0.427495 0.028220 0.415600 0.054310 -0.021230 
